<svg id="Слой_1" data-name="Слой 1" xmlns="http://www.w3.org/2000/svg" width="32" height="15" viewBox="0 0 600 280.05"><title>bus</title><path fill="#b9b9b9" d="M595.5,108,564.6,39.8A68.36,68.36,0,0,0,502.6,0H59.3A59.36,59.36,0,0,0,0,59.31V207.5A32.5,32.5,0,0,0,32.5,240H81a50,50,0,0,0,98,0H421a50,50,0,0,0,98,0h53.2a27.84,27.84,0,0,0,26.7-20,28.77,28.77,0,0,0,1.1-7.8V128.7a50,50,0,0,0-4.5-20.7ZM50,120a10,10,0,0,1-10-10V30A10,10,0,0,1,50,20h70a10,10,0,0,1,10,10v80a10,10,0,0,1-10,10Zm80,140a30,30,0,1,1,30-30,30,30,0,0,1-30,30ZM240,110a10,10,0,0,1-10,10H160a10,10,0,0,1-10-10V30a10,10,0,0,1,10-10h70a10,10,0,0,1,10,10Zm110,0a10,10,0,0,1-10,10H270a10,10,0,0,1-10-10V30a10,10,0,0,1,10-10h70a10,10,0,0,1,10,10Zm30,10a10,10,0,0,1-10-10V30a10,10,0,0,1,10-10h70a10,10,0,0,1,10,10v80a10,10,0,0,1-10,10Zm90,140a30,30,0,1,1,30-30,30,30,0,0,1-30,30Zm19.2-140a10.1,10.1,0,0,1-9.2-10V29.91A9.92,9.92,0,0,1,489.91,20H502.6a48.39,48.39,0,0,1,43.8,28.1l30.9,68.2a29.18,29.18,0,0,1,2.6,11.3Zm0,0"/></svg>