<svg id="Слой_1" data-name="Слой 1" xmlns="http://www.w3.org/2000/svg" width="27" height="17" viewBox="0 0 489.6 310.08"><title>cargo-truck (1)</title><path fill="#b9b9b9" d="M403.92,226.84a41.62,41.62,0,1,0,41.61,41.62,41.67,41.67,0,0,0-41.61-41.62Zm0,53.86a12.24,12.24,0,1,1,12.24-12.24,12.25,12.25,0,0,1-12.24,12.24Zm0,0"/><path fill="#b9b9b9" d="M399.93,53.85H328a9.79,9.79,0,0,0-9.79,9.79V254.59a9.79,9.79,0,0,0,9.79,9.79h10.39a9.76,9.76,0,0,0,9.77-8.3c3.84-29.45,27.33-47.71,55.74-47.71s51.9,18.26,55.74,47.71a9.76,9.76,0,0,0,9.77,8.3h10.38a9.79,9.79,0,0,0,9.79-9.79V159.11a9.76,9.76,0,0,0-2.28-6.28L407.45,57.36a9.8,9.8,0,0,0-7.51-3.51Zm-62.11,78.34v-49a9.8,9.8,0,0,1,9.79-9.79h43.13A9.79,9.79,0,0,1,398.27,77l40.8,49A9.79,9.79,0,0,1,431.54,142H347.62a9.79,9.79,0,0,1-9.79-9.79Zm0,0"/><path fill="#b9b9b9" d="M9.79,264.38H34.86a9.76,9.76,0,0,0,9.77-8.3c3.84-29.45,27.33-47.71,55.74-47.71s51.9,18.26,55.74,47.71a9.75,9.75,0,0,0,9.77,8.3h123a9.79,9.79,0,0,0,9.79-9.79V9.79A9.8,9.8,0,0,0,288.86,0H9.79A9.79,9.79,0,0,0,0,9.79v244.8a9.79,9.79,0,0,0,9.79,9.79Zm0,0"/><path fill="#b9b9b9" d="M100.37,226.84A41.62,41.62,0,1,0,142,268.46a41.67,41.67,0,0,0-41.62-41.62Zm0,53.86a12.24,12.24,0,1,1,12.24-12.24,12.25,12.25,0,0,1-12.24,12.24Zm0,0"/></svg>