<svg id="Capa_1" data-name="Capa 1" xmlns="http://www.w3.org/2000/svg" viewBox="0 0 18.36 17.6"><defs><style>.cls-1{fill:#f9d902;}</style></defs><title>controller-priority</title><polygon fill="#FFFFFF" points="6.84 10.47 3.16 7.88 7.61 7.88 9.18 3.16 10.75 7.88 15.2 7.88 11.52 10.47 12.96 14.98 9.18 12.22 5.4 14.98 6.84 10.47"/><path class="cls-1" d="M9.18,6.32l.4,1.19L10,8.88h2l-.49.34-1.2.84.45,1.4.29.91-.72-.53L9.18,11,8,11.85l-.72.53.29-.91L8,10.07l-1.2-.84-.49-.34h2l.46-1.37.4-1.19M9.18,0,6.89,6.88H0l5.66,4L3.52,17.6l5.66-4.13,5.66,4.13L12.7,10.86l5.66-4H11.47L9.18,0Z" transform="translate(0 0)"/></svg>