<svg id="Capa_1" data-name="Capa 1" xmlns="http://www.w3.org/2000/svg" viewBox="0 0 508.52 508.52"><defs><style>.cls-1{fill:#FFFFFF;}</style></defs><title>desktop-message-attention</title><path class="cls-1" d="M254.26,0C113.85,0,0,113.85,0,254.26S113.85,508.52,254.26,508.52,508.52,394.67,508.52,254.26,394.67,0,254.26,0Zm0,476.74c-122.68,0-222.48-99.83-222.48-222.48S131.58,31.78,254.26,31.78s222.48,99.8,222.48,222.48S376.91,476.74,254.26,476.74Z"/><path class="cls-1" d="M254.26,95.35a31.79,31.79,0,0,0-31.78,31.78V286A31.78,31.78,0,1,0,286,286V127.13A31.79,31.79,0,0,0,254.26,95.35Z"/><circle class="cls-1" cx="254.26" cy="380.88" r="31.78"/></svg>