<svg id="Слой_1" data-name="Слой 1" xmlns="http://www.w3.org/2000/svg" viewBox="0 0 41.6 41.6"><title>error</title><path fill="#ed0032" d="M20.8,0A20.8,20.8,0,1,0,41.6,20.8,20.83,20.83,0,0,0,20.8,0Zm0,40A19.2,19.2,0,1,1,40,20.8,19.22,19.22,0,0,1,20.8,40Zm0,0"/><path fill="#ed0032" d="M28.57,13a.8.8,0,0,0-1.13,0L20.8,19.67,14.16,13A.8.8,0,1,0,13,14.16l6.63,6.64L13,27.43a.8.8,0,0,0,.57,1.37.79.79,0,0,0,.56-.24l6.64-6.64,6.63,6.64a.8.8,0,0,0,1.13-1.13L21.93,20.8l6.64-6.64a.8.8,0,0,0,0-1.13Zm0,0"/></svg>