<svg xmlns="http://www.w3.org/2000/svg" xmlns:xlink="http://www.w3.org/1999/xlink" viewBox="0 0 480 432"><defs><style>.cls-1{fill:none;}.cls-2{clip-path:url(#clip-path);}.cls-3{fill:#666666;fill-rule:evenodd;}</style><clipPath id="clip-path" transform="translate(-32 -48)"><rect class="cls-1" width="512" height="512"/></clipPath></defs><title>icon-pdf</title><g class="cls-2"><path class="cls-3" d="M304,272v80h32a16,16,0,0,0,16-16V288a15.94,15.94,0,0,0-16-16Zm-16-16V368h47.92A32,32,0,0,0,368,335.91V288.09A32,32,0,0,0,335.92,256Zm-80,16v32h32a16,16,0,0,0,0-32Zm-16,16v80h16V320h31.92a32,32,0,1,0,0-64H192Zm208,16V272h64V256H384V368h16V320h48V304ZM191.91,224A32,32,0,0,0,160,255.87V368.13A32,32,0,0,0,191.91,400H464.09A32,32,0,0,0,496,368.13V255.87A32,32,0,0,0,464.09,224ZM240,72v71.86A16.09,16.09,0,0,0,255.95,160H315.2Zm80,344v32.11A16,16,0,0,1,304,464H64a16,16,0,0,1-16-15.93V79.93A16,16,0,0,1,63.93,64H224v79.91A31.91,31.91,0,0,0,256,176h64v32H192.11A48,48,0,0,0,144,256V368a47.94,47.94,0,0,0,48.11,48Zm16-208V160L240,48H64A32.08,32.08,0,0,0,32,80.12V447.88A32,32,0,0,0,64,480H304a32,32,0,0,0,32-31.85V416H463.89A48,48,0,0,0,512,368V256a47.94,47.94,0,0,0-48.11-48Z" transform="translate(-32 -48)"/></g></svg>