<svg xmlns="http://www.w3.org/2000/svg" xmlns:xlink="http://www.w3.org/1999/xlink" viewBox="0 0 480 432"><defs><style>.cls-1{fill:none;}.cls-2{clip-path:url(#clip-path);}.cls-3{fill:#666666;fill-rule:evenodd;}</style><clipPath id="clip-path" transform="translate(-32 -48)"><rect class="cls-1" width="512" height="512"/></clipPath></defs><title>icon-xls</title><g class="cls-2"><path class="cls-3" d="M416.08,256a32,32,0,1,0-.08,64h15.85a16,16,0,1,1,.17,32H416a16.07,16.07,0,0,1-16-15.93v-.18H384V336a32,32,0,0,0,32.08,32h15.84a32,32,0,1,0,.08-64H416.15a16,16,0,1,1-.17-32h16a16,16,0,0,1,16,16h16a32,32,0,0,0-32.08-32ZM368,352v16H288V256h16v96ZM224,312l-32-56h16l24,42,24-42h16l-32,56,32,56H256l-24-42-24,42H192Zm-32.09-88A32,32,0,0,0,160,255.87V368.13A32,32,0,0,0,191.91,400H464.09A32,32,0,0,0,496,368.13V255.87A32,32,0,0,0,464.09,224ZM240,72v71.86A16.09,16.09,0,0,0,255.95,160H315.2Zm80,344v32.11A16,16,0,0,1,304,464H64a16,16,0,0,1-16-15.93V79.93A16,16,0,0,1,63.93,64H224v79.91A31.91,31.91,0,0,0,256,176h64v32H192.11A48,48,0,0,0,144,256V368a47.94,47.94,0,0,0,48.11,48Zm16-208V160L240,48H64A32.08,32.08,0,0,0,32,80.12V447.88A32,32,0,0,0,64,480H304a32,32,0,0,0,32-31.85V416H463.89A48,48,0,0,0,512,368V256a47.94,47.94,0,0,0-48.11-48Z" transform="translate(-32 -48)"/></g></svg>