<svg xmlns="http://www.w3.org/2000/svg" xmlns:xlink="http://www.w3.org/1999/xlink" viewBox="0 0 480 432"><defs><style>.cls-1{fill:none;}.cls-2{clip-path:url(#clip-path);}.cls-3{fill:#666666;fill-rule:evenodd;}</style><clipPath id="clip-path" transform="translate(-32 -48)"><rect class="cls-1" width="512" height="512"/></clipPath></defs><title>icon-doc</title><g class="cls-2"><path class="cls-3" d="M464,336a32,32,0,0,1-32.08,32H416.08A32,32,0,0,1,384,335.91V288.09A32,32,0,0,1,416.08,256h15.84A32,32,0,0,1,464,288H448a15.94,15.94,0,0,0-16-16H416a16,16,0,0,0-16,16v48a15.94,15.94,0,0,0,16,16h16a16,16,0,0,0,16-16ZM320,272a16,16,0,0,0-16,16v48a15.94,15.94,0,0,0,16,16h16a16,16,0,0,0,16-16V288a15.94,15.94,0,0,0-16-16Zm.09-16A32,32,0,0,0,288,288.09v47.81A32,32,0,0,0,320.08,368h15.84A32,32,0,0,0,368,335.91V288.09A32,32,0,0,0,335.92,256ZM208,272v80h32a16,16,0,0,0,16-16V288a15.94,15.94,0,0,0-16-16Zm-16-16V368h47.92A32,32,0,0,0,272,335.91V288.09A32,32,0,0,0,239.92,256Zm-.09-32A32,32,0,0,0,160,255.87V368.13A32,32,0,0,0,191.91,400H464.09A32,32,0,0,0,496,368.13V255.87A32,32,0,0,0,464.09,224ZM240,72v71.86A16.09,16.09,0,0,0,255.95,160H315.2Zm80,344v32.11A16,16,0,0,1,304,464H64a16,16,0,0,1-16-15.93V79.93A16,16,0,0,1,63.93,64H224v79.91A31.91,31.91,0,0,0,256,176h64v32H192.11A48,48,0,0,0,144,256V368a47.94,47.94,0,0,0,48.11,48Zm16-208V160L240,48H64A32.08,32.08,0,0,0,32,80.12V447.88A32,32,0,0,0,64,480H304a32,32,0,0,0,32-31.85V416H463.89A48,48,0,0,0,512,368V256a47.94,47.94,0,0,0-48.11-48Z" transform="translate(-32 -48)"/></g></svg>