<svg id="Слой_1" data-name="Слой 1" xmlns="http://www.w3.org/2000/svg" viewBox="0 0 346 109.96"><defs><style>.cls-1,.cls-2{fill:#ffffff;}.cls-2{fill-rule:evenodd;}</style></defs><title>logo</title><rect class="cls-1" y="94.39" width="68.14" height="5.3"/><rect class="cls-1" x="277.82" y="94.85" width="68.17" height="4.39"/><path class="cls-1" d="M17.75,12.22h9.41l.48.06.45.11.4.23.37.28.31.37.23.4.11.43.06.45V31.89l-.06.45-.11.43-.23.37-.31.37-.37.31-.4.23-.45.12-.48.06H17.75ZM0,1.16V76.51H17.75V45.64h8.53l.57,0,.48.11.43.2.34.25.25.31.2.4.11.48,0,.54V76.51H46.46V46.69l0-.91-.09-.88-.11-.82-.17-.79-.23-.74-.28-.71-.31-.65-.37-.62L44.45,40,44,39.46l-.51-.51-.57-.45-.62-.4-.68-.37-.71-.34-.77-.28.88-.34.82-.4.77-.45.71-.51.62-.54.6-.62.54-.65.48-.71.43-.76.37-.82.31-.88.26-.94.2-1,.14-1,.08-1.08,0-1.13V16.53l0-.93,0-.94-.08-.88-.11-.85-.14-.82-.17-.79-.2-.76-.23-.74-.25-.71-.28-.68-.34-.65-.34-.62-.4-.57L44.33,6l-.45-.51L43.4,5l-.51-.45-.54-.43-.57-.42-.59-.37L40.56,3l-.65-.31-.71-.28-.71-.25-.76-.23L37,1.7l-.82-.17-.85-.14-.88-.09-.91-.08-.93,0-1,0Zm88.13,0V63.69l-.06.45-.11.42-.23.37-.31.37-.37.31-.4.23-.48.11-.48.06H78.83L78.35,66l-.45-.11-.43-.23-.37-.31-.28-.37-.23-.37-.11-.42-.06-.45V1.16H58.65V62.31l0,.94,0,.94.08.88.11.85.14.82.17.79.2.77.23.74.26.71.28.68.34.62.34.62.4.59.4.54.45.54.48.48.51.48.54.43.57.4.59.4.62.34.65.31.71.28.71.26.76.23.76.2.82.17.85.14.88.08.91.08.93,0,1,0H90.14l1,0,.94,0,.91-.08.88-.08.85-.14.82-.17.79-.2.74-.23.74-.26.68-.28.68-.31.62-.34.59-.4.57-.4.54-.43.51-.48.48-.48.45-.54.4-.54.4-.59L104,71l.34-.62.28-.68.25-.71.23-.74.2-.77.17-.79.14-.82.11-.85.09-.88,0-.94,0-.94V1.16Zm183.6,0-10,55-10.06-55H234.37l17,75.35h20.47l17-75.35ZM133.71,0l-1,0-.93,0-.91.08L130,.23l-.85.14-.82.17-.79.2-.74.23-.74.25-.68.28-.68.31-.62.34-.6.37-.57.42-.54.43-.51.45-.48.51-.45.51-.4.57-.4.57-.34.62-.34.65-.28.68-.25.71-.23.74-.2.76-.17.79-.14.82-.11.85-.08.88,0,.94,0,.93V76.51h17.77V13.95l.06-.45.14-.43.2-.37.31-.37.37-.31.4-.23.45-.11.48-.06H145l.48.06.45.11.43.23.37.31.31.37.2.37.14.43,0,.45V76.51h17.77V15.36l0-.93,0-.94-.09-.88-.11-.85-.14-.82-.17-.79-.2-.76-.23-.74-.25-.71-.28-.68-.34-.65L163,6l-.4-.57-.4-.57-.45-.51-.48-.51-.51-.45-.54-.43-.57-.42-.6-.37-.62-.34-.65-.31L157,1.22,156.33,1l-.77-.23-.77-.2L154,.37l-.85-.14-.88-.09-.91-.08-.94,0-1,0Zm63.1,66.44-.45-.14-.4-.2-.37-.31-.31-.37-.2-.4-.14-.43-.06-.45V13.38l.06-.45.14-.42.2-.4.31-.37.37-.28.4-.23.45-.11.48-.06h8l.48.06.45.11.4.23.37.28.31.37.23.4.11.42.06.45V64.15l-.06.45-.11.43-.23.4-.31.37-.37.31-.4.2-.45.14-.48,0h-8ZM192.87,0l-1,0-.94,0-.91.08-.88.09-.85.14-.82.17-.77.2L186,1l-.71.25-.71.28-.65.31-.62.34-.6.37-.57.42-.54.43-.51.45-.48.51-.45.51-.4.57-.4.57L179,6.6l-.34.65-.28.68-.26.71-.23.74-.2.76-.17.79-.14.82-.11.85-.08.88,0,.94,0,.93V62.31l0,.94,0,.94.08.88.11.85.14.82.17.79.2.77.23.74.26.71.28.68L179,71l.34.62.4.59.4.54.45.54.48.48.51.48.54.43.57.4.6.4.62.34.65.31.71.28.71.26.76.23.77.2.82.17.85.14.88.08.91.08.94,0,1,0h16.9l1,0,.94,0,.91-.08.88-.08.85-.14.82-.17.77-.2.76-.23.71-.26.71-.28.65-.31.62-.34.6-.4.57-.4.54-.43.51-.48.48-.48.45-.54.4-.54.4-.59.34-.62.34-.62.28-.68.26-.71.23-.74.2-.77.17-.79.14-.82.11-.85.08-.88,0-.94,0-.94V15.36l0-.93,0-.94-.08-.88-.11-.85-.14-.82-.17-.79-.2-.76-.23-.74-.26-.71L224,7.26l-.34-.65L223.29,6l-.4-.57-.4-.57L222,4.34l-.48-.51L221,3.37l-.54-.43-.57-.42-.6-.37-.62-.34-.65-.31-.71-.28L216.65,1l-.76-.23-.77-.2L214.3.37l-.85-.14-.88-.09-.91-.08-.94,0-1,0ZM317.34,66.44l-.45-.14-.42-.2-.37-.31-.28-.37-.23-.4-.11-.43-.06-.45V13.38l.06-.45.11-.42.23-.4.28-.37.37-.28.42-.23.45-.11.48-.06h8l.48.06.45.11.42.23.37.28.31.37.2.4.14.42,0,.45V64.15l0,.45-.14.43-.2.4-.31.37-.37.31-.42.2-.45.14-.48,0h-8ZM313.37,0l-1,0-.93,0-.91.08-.88.09-.85.14L308,.54l-.77.2-.76.23-.71.25-.71.28-.65.31-.62.34-.6.37-.57.42-.54.43-.51.45-.48.51-.46.51-.4.57-.4.57-.34.62-.34.65-.28.68-.26.71-.23.74-.2.76-.17.79-.14.82-.11.85-.09.88,0,.94,0,.93V62.31l0,.94,0,.94.09.88.11.85.14.82.17.79.2.77.23.74.26.71.28.68.34.62.34.62.4.59.4.54.46.54.48.48.51.48.54.43.57.4.6.4.62.34.65.31.71.28.71.26.76.23.77.2.82.17.85.14.88.08.91.08.93,0,1,0h16.89l1,0,.94,0,.91-.08.88-.08.85-.14.82-.17.77-.2.77-.23.71-.26.71-.28.65-.31.62-.34.6-.4.57-.4.54-.43.51-.48.48-.48.45-.54.4-.54.39-.59.34-.62.34-.62.28-.68L345,69l.23-.74.2-.77.17-.79.14-.82.11-.85.08-.88,0-.94,0-.94V15.36l0-.93,0-.94-.08-.88-.11-.85-.14-.82-.17-.79-.2-.76L345,8.65l-.25-.71-.28-.68-.34-.65L343.79,6l-.39-.57-.4-.57-.45-.51-.48-.51-.51-.45L341,2.95l-.57-.42-.6-.37-.62-.34-.65-.31-.71-.28L337.15,1l-.77-.23-.77-.2L334.8.37l-.85-.14-.88-.09-.91-.08-.94,0-1,0Z" transform="translate(0 0)"/><path class="cls-2" d="M89.8,102V90.26l0-.2-.14-.2-.17-.11-.2-.06H87v12.84h2.3l.2-.06.17-.11.14-.2Zm.45-14.91.82.06.71.17.6.28.51.4.37.54.25.62.17.74.06.88v10.77l-.06.88-.17.74-.25.65-.37.51-.51.4-.6.31-.71.17-.82.06H83V87.05Z" transform="translate(0 0)"/><path class="cls-2" d="M101.17,91.5H105v13.72h-3.8Zm3.37-1.73-.31.26-.37.2-.37.11-.4,0-.42,0-.4-.11-.34-.2-.34-.26-.26-.31-.2-.37-.11-.37,0-.43,0-.4.11-.4.2-.34.26-.31.34-.26.34-.2.4-.11.42,0,.4,0,.37.11.37.2.31.26.25.31.2.34.11.4,0,.43,0,.4-.11.4-.2.34Z" transform="translate(0 0)"/><path class="cls-1" d="M115.85,101.82l-.17-.11-.11-.2,0-.2V94.45l0-.2.11-.2.17-.11.23,0h1.56l.23,0,.14.11.14.2,0,.2v6.86l0,.2-.14.2-.14.11-.23,0h-1.56Zm-.59-10.6-.82.06-.71.17-.6.28-.48.4-.37.54-.26.62-.17.74-.06.88v6l.06.88.17.74.26.62.37.54.48.4.6.28.71.17.82.06h.59l.68,0,.62-.11.54-.23.48-.28v2.84l0,.2-.14.17-.14.14-.23.06h-1.56l-.23-.06-.17-.14-.11-.17,0-.2v-.91h-3.4v.45l.06.88.17.74.26.62.4.54.48.4.6.28.71.17.82.06h2.83l.82-.06.71-.17.6-.28.48-.4.4-.54.26-.62.17-.74.06-.88V91.47h-3.17v1l-.23-.31-.28-.25-.31-.2-.34-.2-.4-.14-.43-.08-.45-.06-.48,0Z" transform="translate(0 0)"/><path class="cls-2" d="M129.15,91.5h3.8v13.72h-3.8Zm3.37-1.73-.34.26-.34.2-.37.11-.4,0-.42,0-.4-.11-.34-.2-.34-.26-.26-.31-.2-.37-.11-.37,0-.43,0-.4.11-.4.2-.34.26-.31.34-.26.34-.2.4-.11.42,0,.4,0,.37.11.34.2.34.26.25.31.2.34.11.4,0,.43,0,.4-.11.4-.2.34Z" transform="translate(0 0)"/><polygon class="cls-2" points="144.82 103.04 145.93 103.04 145.93 105.48 143.26 105.48 142.44 105.42 141.73 105.25 141.14 104.94 140.63 104.54 140.26 104.03 140 103.38 139.83 102.64 139.78 101.76 139.78 88.53 143.55 88.53 143.55 91.47 145.93 91.47 145.93 94.19 143.55 94.19 143.55 101.68 143.57 102.05 143.63 102.36 143.72 102.59 143.86 102.76 144.03 102.9 144.25 102.98 144.51 103.01 144.82 103.04"/><path class="cls-2" d="M158.43,102.25V94.45l0-.2-.14-.2-.14-.11-.23,0h-1.56l-.23,0-.17.11-.11.2,0,.2v7.79l0,.23.11.17.17.14.23,0h1.56l.23,0,.14-.14.14-.17Zm.6-10.77h3.17v13.75H159v-1l-.23.31-.28.26-.31.2-.34.2-.4.14-.43.08-.45.06-.48,0h-.6l-.82-.06-.71-.17-.6-.31-.48-.4-.37-.54-.25-.62-.17-.77-.06-.88V94.93l.06-.88.17-.77.25-.62.37-.51.48-.43.6-.28.71-.17.82-.06h.6l.48,0,.45.06.43.08.4.14.34.2.31.2.28.26.23.31Z" transform="translate(0 0)"/><rect class="cls-1" x="168.94" y="87.05" width="3.8" height="18.17"/><polygon class="cls-2" points="196.19 87.05 199.64 87.05 201.77 100.72 203.36 87.05 207.16 87.05 204.24 105.22 199.73 105.22 197.91 94.05 196.1 105.22 191.59 105.22 188.67 87.05 192.47 87.05 194.06 100.72 196.19 87.05"/><path class="cls-2" d="M219.71,102.59v-8.5l0-.2-.14-.17-.14-.11-.23-.06h-1.56l-.23.06-.17.11-.11.17,0,.2v8.5l0,.2.11.2.17.14.23,0h1.56l.23,0,.14-.14.14-.2Zm3.77-7.65v6.83l-.06.88-.17.77-.26.65-.4.51-.48.43-.6.28-.71.17-.82.06h-3.2l-.82-.06-.71-.17-.6-.28-.48-.43-.37-.51-.26-.65-.17-.77-.06-.88V94.93l.06-.88.17-.77.26-.62.37-.51.48-.43.6-.28.71-.17.82-.06H220l.82.06.71.17.6.28.48.43.4.51.26.62.17.77Z" transform="translate(0 0)"/><polygon class="cls-2" points="236.04 91.22 236.78 91.22 236.78 94.88 234.94 94.88 234.71 94.9 234.51 94.93 234.34 95.02 234.2 95.13 234.11 95.27 234.03 95.44 233.97 95.87 233.97 105.22 230.2 105.22 230.2 91.47 233.63 91.47 233.63 92.81 233.86 92.44 234.09 92.1 234.34 91.84 234.65 91.62 234.96 91.45 235.31 91.3 235.67 91.25 236.04 91.22"/><rect class="cls-1" x="242.67" y="87.05" width="3.8" height="18.17"/><path class="cls-2" d="M259.54,102.25V94.48l0-.23-.14-.17-.14-.11-.23-.06h-1.56l-.23.06-.17.11-.11.17,0,.23v7.77l0,.2.11.2.17.11.23.06H259l.23-.06.14-.11.14-.2Zm-2.32-11,.68.06.62.11.54.23.48.28V87.05h3.77v18.17h-3.17v-1l-.23.31-.28.26-.31.23-.34.17-.4.14-.42.11-.45.06-.48,0h-.6l-.82-.06-.71-.17-.6-.31-.48-.4-.37-.51-.25-.65-.17-.74-.06-.88V94.93l.06-.88.17-.74.25-.65.37-.51.48-.4.6-.31.71-.17.82-.06Z" transform="translate(0 0)"/></svg>