<svg id="Слой_1" data-name="Слой 1" xmlns="http://www.w3.org/2000/svg" width="24" height="16" viewBox="0 0 512 360"><title>motorcycle</title><path fill="#b9b9b9" d="M437,210a74,74,0,0,0-34,8.52l-20.27-24.09a100,100,0,0,1,29-11.7A122.12,122.12,0,0,1,437.08,180a42.82,42.82,0,0,0,30.41-12.48C476.08,159,481,147.22,481,133.24,481,56.42,416.28,0,347.95,0H331a15,15,0,0,0,0,30h16.95A101.4,101.4,0,0,1,361,31.32v29a74.39,74.39,0,0,0-24.68,7.1c-.1-.11-.22-.19-.32-.3A74.8,74.8,0,0,0,305.39,93.4l-34.15,51.21a15,15,0,0,1-10.21,6.5,94.57,94.57,0,0,0-70.52,52.3A119.32,119.32,0,0,1,211,270H180a90,90,0,1,0-90,90c39.06,0,72-25.16,84.47-60H316a15,15,0,0,0,15-15,112.54,112.54,0,0,1,2.95-25.28,102.38,102.38,0,0,1,25.42-46.48l20.25,24.06A74.27,74.27,0,0,0,362,285a75,75,0,1,0,75-75ZM90,330a60,60,0,1,1,60-60H105a15,15,0,0,1-15-15,15,15,0,0,0-30,0,45.05,45.05,0,0,0,45,45h36.66A59.79,59.79,0,0,1,90,330Zm347,0a45.05,45.05,0,0,1-45-45,44.59,44.59,0,0,1,6.88-23.63l26.41,33a15,15,0,1,0,23.44-18.75l-26.37-33A44.43,44.43,0,0,1,437,240a45,45,0,0,1,0,90Zm0,0"/><path fill="#b9b9b9" d="M254.73,115.31l25.7-38.55a104.52,104.52,0,0,1,31.23-30.12C295.2,36.24,276.22,30,256,30a105.28,105.28,0,0,0-87.45,47l24,14.4a200.2,200.2,0,0,0,62.19,23.87Zm0,0"/><path fill="#b9b9b9" d="M177.1,117.16,80.85,60H15A15,15,0,0,0,0,75a75.09,75.09,0,0,0,75,75c30,0,61.13.65,94.48,29.64.13-.24.13-.51.27-.74,11.64-18.71,28.07-33.22,46.9-43.41a229.9,229.9,0,0,1-39.55-18.33Zm0,0"/></svg>