<svg id="Слой_1" data-name="Слой 1" xmlns="http://www.w3.org/2000/svg" xmlns:xlink="http://www.w3.org/1999/xlink" viewBox="0 0 33 33"><defs><style>.cls-1{fill:none;}.cls-2{clip-path:url(#clip-path);}.cls-3{fill:#C3C3C3;}</style><clipPath id="clip-path"><rect class="cls-1" width="33" height="33"/></clipPath></defs><title>queue-date</title><g class="cls-2"><path class="cls-3" d="M29,33H4a4,4,0,0,1-4-4V7A4,4,0,0,1,4,3H29a4,4,0,0,1,4,4V29a4,4,0,0,1-4,4M4,6A1,1,0,0,0,3,7V29a1,1,0,0,0,1,1H29a1,1,0,0,0,1-1V7a1,1,0,0,0-1-1Z"/><rect class="cls-3" x="3" y="12" width="27" height="3"/><rect class="cls-3" x="6" y="18" width="3" height="3"/><rect class="cls-3" x="6" width="3" height="9"/><rect class="cls-3" x="24" width="3" height="9"/><rect class="cls-3" x="12" y="18" width="3" height="3"/><rect class="cls-3" x="18" y="18" width="3" height="3"/><rect class="cls-3" x="24" y="18" width="3" height="3"/><rect class="cls-3" x="6" y="24" width="3" height="3"/><rect class="cls-3" x="12" y="24" width="3" height="3"/><rect class="cls-3" x="18" y="24" width="3" height="3"/></g></svg>