<svg id="Слой_1" data-name="Слой 1" xmlns="http://www.w3.org/2000/svg" xmlns:xlink="http://www.w3.org/1999/xlink" width="33" height="13" viewBox="0 0 79.17 28.17"><defs><style>.cls-1{fill:none;}.cls-2{clip-path:url(#clip-path);}</style><clipPath id="clip-path" transform="translate(0 0)"><rect class="cls-1" width="79.92" height="29"/></clipPath></defs><title>sedan-car-model</title><path fill="#b9b9b9" d="M13.82,16.22a6,6,0,1,0,5.95,6.48c0-.17,0-.34,0-.51a6,6,0,0,0-6-6Zm-3,3.72L12,21.17a2.16,2.16,0,0,0-.22.52H10.11a3.71,3.71,0,0,1,.72-1.75Zm-.72,2.78h1.73a2,2,0,0,0,.22.52l-1.22,1.22a3.74,3.74,0,0,1-.73-1.74Zm3.2,3.18a3.73,3.73,0,0,1-1.73-.72L12.79,24a2,2,0,0,0,.52.21Zm0-5.7a2.09,2.09,0,0,0-.53.22l-1.22-1.22a3.72,3.72,0,0,1,1.75-.72Zm1-1.72a3.72,3.72,0,0,1,1.74.72l-1.21,1.22a2.1,2.1,0,0,0-.53-.22Zm0,7.42V24.19a2.14,2.14,0,0,0,.52-.21l1.21,1.22a3.76,3.76,0,0,1-1.73.72Zm2.47-1.44-1.23-1.23a1.88,1.88,0,0,0,.22-.52h1.72a3.74,3.74,0,0,1-.71,1.74Zm-1-2.78a2.11,2.11,0,0,0-.22-.52l1.22-1.22a3.67,3.67,0,0,1,.71,1.75Zm0,0" transform="translate(0 0)"/><g class="cls-2"><path fill="#b9b9b9" d="M63.43,16.22a6,6,0,0,0-6,6,5.32,5.32,0,0,0,.06.75,6,6,0,0,0,11.87-.24c0-.17,0-.34,0-.51a6,6,0,0,0-6-6Zm-3,3.72,1.21,1.22a2,2,0,0,0-.21.52H59.72a3.72,3.72,0,0,1,.72-1.75Zm-.72,2.78h1.73a2,2,0,0,0,.21.52l-1.22,1.22a3.69,3.69,0,0,1-.73-1.74Zm3.19,3.18a3.73,3.73,0,0,1-1.73-.72L62.39,24a2,2,0,0,0,.52.21Zm0-5.7a2.1,2.1,0,0,0-.53.22l-1.22-1.22a3.72,3.72,0,0,1,1.75-.72Zm1-1.72a3.72,3.72,0,0,1,1.75.72l-1.22,1.21a2.08,2.08,0,0,0-.53-.22Zm0,7.42V24.19a2.07,2.07,0,0,0,.52-.21l1.22,1.22a3.79,3.79,0,0,1-1.73.72Zm2.47-1.44-1.22-1.23a2.16,2.16,0,0,0,.22-.52h1.72a3.71,3.71,0,0,1-.72,1.74Zm-1-2.78a2,2,0,0,0-.21-.52l1.22-1.22a3.75,3.75,0,0,1,.72,1.75Zm0,0" transform="translate(0 0)"/><path fill="#b9b9b9" d="M77.77,13.13V8.71a1.44,1.44,0,0,0-1.22-1.43,58,58,0,0,1-6-1.18c-1.93-.59-9.36-3.74-11.94-4.33S44.41-2,33.29,1.89c-1.88.65-10.35,4.7-15.33,6.8-1.46,0-16,3.05-16.75,5.13A32.87,32.87,0,0,0,0,17.43a8.48,8.48,0,0,0,1.08,4.8,17.25,17.25,0,0,0,5.66,1.32c0-.15-.06-.3-.08-.45a7.58,7.58,0,0,1-.06-.9A7.18,7.18,0,1,1,21,22.2c0,.2,0,.41,0,.6a6.92,6.92,0,0,1-.23,1.29h0l35.61-.72c0-.09,0-.18,0-.27a6.82,6.82,0,0,1-.06-.9,7.17,7.17,0,0,1,14.35,0v0h.15l6.09-1.15a5.18,5.18,0,0,0,2.33-4.66,4.11,4.11,0,0,0-1.4-3.29ZM42.44,8.94l-13.3.41c.25-2-.93-2.44-.93-2.44,5.29-4.8,15.94-5,15.94-5Zm14.93-.61-12.12.41,1.1-6.79a28.68,28.68,0,0,1,9.84,1.3L58,6.14Zm6.83,0H60.83L57.45,3.65c2.53,1,4.56,2,5.77,2.63a1.87,1.87,0,0,1,1,2Zm0,0" transform="translate(0 0)"/></g></svg>